<svg version="1.0" xmlns="http://www.w3.org/2000/svg"
 width="540.000000pt" height="540.000000pt" viewBox="0 0 540.000000 540.000000"
 preserveAspectRatio="xMidYMid meet">
<g transform="translate(0.000000,540.000000) scale(0.100000,-0.100000)"
fill="#000000" stroke="none">
<path d="M1731 5100 c-166 -435 -270 -779 -312 -1023 l-11 -69 58 -60 c33 -33
71 -66 85 -73 24 -13 28 -12 45 6 43 48 64 51 349 47 l267 -3 35 -40 c35 -40
73 -105 73 -125 0 -20 -38 -10 -128 35 -51 25 -105 48 -121 51 -19 4 -62 -5
-123 -24 -144 -48 -720 -192 -764 -192 -41 0 5 517 77 855 55 260 160 571 238
705 40 68 65 130 56 138 -7 7 -6 8 -79 -113 -198 -329 -401 -829 -455 -1123
-12 -62 -30 -163 -41 -224 -11 -62 -30 -143 -40 -180 l-20 -67 47 -44 c85 -78
137 -123 167 -144 l29 -20 45 34 c61 46 140 85 237 116 327 105 399 121 560
121 136 0 216 -22 267 -71 l29 -28 -28 -7 c-52 -14 -258 -28 -325 -21 l-66 6
-67 -72 c-130 -138 -347 -326 -674 -585 -177 -140 -252 -173 -326 -142 -20 9
-40 16 -43 16 -10 0 7 -459 23 -580 53 -423 171 -803 377 -1214 89 -179 159
-308 164 -303 2 2 -12 42 -31 90 -82 204 -172 496 -214 697 -61 285 -81 475
-88 807 l-6 272 79 82 c113 117 294 282 514 471 385 329 355 311 555 331 77 8
141 14 143 12 3 -3 -203 -184 -296 -259 -72 -58 -85 -62 -133 -42 -13 6 -17
-2 -23 -40 -9 -67 -7 -290 4 -574 36 -904 122 -1519 277 -1975 71 -212 202
-459 229 -432 4 3 -7 30 -24 59 -74 132 -160 372 -206 581 -91 403 -123 821
-112 1462 3 220 10 465 16 545 9 137 8 147 -10 172 -11 15 -20 33 -20 39 0 34
225 291 297 338 25 17 50 31 55 31 20 0 5 -63 -33 -135 -41 -78 -42 -79 -36
-159 8 -119 63 -428 102 -581 40 -157 90 -295 153 -422 44 -89 62 -106 62 -60
0 26 16 54 26 45 3 -4 9 -22 13 -40 12 -56 33 -39 74 62 122 298 267 841 267
998 0 68 -3 79 -36 133 -26 41 -38 75 -42 110 l-5 52 34 -19 c48 -27 267 -241
301 -293 34 -55 37 -105 7 -137 -21 -22 -21 -26 -10 -171 82 -1089 -11 -1988
-260 -2512 -27 -57 -48 -106 -46 -108 2 -2 22 23 44 54 235 335 418 1009 483
1778 27 322 38 799 23 1064 l-6 123 -34 -5 c-30 -5 -41 1 -106 54 -119 100
-297 262 -293 267 3 2 36 -1 75 -7 38 -6 98 -11 133 -11 78 0 114 -17 200 -93
35 -31 124 -105 199 -164 145 -114 454 -381 576 -497 118 -112 116 -105 104
-428 -6 -150 -18 -334 -26 -408 -42 -351 -133 -715 -259 -1034 -31 -77 -54
-141 -52 -143 10 -10 44 54 126 232 206 447 306 736 374 1080 43 215 57 348
63 594 l6 233 -31 -16 c-68 -35 -93 -26 -282 104 -233 159 -399 293 -609 491
-95 90 -181 168 -190 173 -9 6 -83 11 -166 12 -111 1 -164 6 -205 19 l-55 17
39 34 c22 19 62 41 90 49 67 20 266 19 387 -1 138 -23 344 -95 506 -174 77
-39 144 -70 147 -70 8 0 174 141 204 173 l23 25 -19 38 c-22 44 -33 91 -63
277 -48 297 -219 789 -365 1052 -59 106 -176 286 -182 280 -2 -1 12 -34 31
-71 133 -265 246 -589 302 -869 37 -184 55 -351 62 -567 l6 -197 -46 14 c-25
7 -174 43 -331 80 -156 36 -327 80 -378 97 -133 44 -172 42 -287 -15 -89 -44
-131 -57 -131 -39 0 23 72 130 99 149 31 21 38 22 289 18 255 -4 302 -10 349
-40 23 -15 26 -14 98 45 41 34 80 71 86 82 15 28 0 103 -56 277 -24 75 -64
207 -89 294 -56 192 -128 393 -213 591 -34 82 -63 157 -63 166 0 20 -27 46
-37 36 -3 -3 23 -106 60 -228 84 -283 121 -430 152 -610 24 -143 45 -338 45
-434 l0 -52 -77 -4 c-105 -6 -343 8 -439 27 -44 8 -85 15 -92 15 -7 0 -57 -43
-111 -95 -54 -52 -101 -95 -104 -95 -4 0 -7 11 -7 24 0 32 -37 75 -88 104
l-41 23 25 -55 c36 -80 23 -170 -14 -93 -15 30 -28 33 -56 12 -25 -19 -59 -19
-96 0 -28 14 -29 14 -58 -23 l-31 -37 -9 25 c-12 32 1 84 32 128 14 20 24 38
22 40 -7 7 -90 -34 -104 -51 -8 -9 -17 -37 -20 -63 l-7 -47 -112 113 -112 113
-63 -7 c-35 -4 -97 -11 -138 -16 -86 -10 -323 -13 -368 -4 -28 6 -30 9 -34 62
-7 78 8 285 27 390 24 131 138 612 180 762 9 30 14 69 13 85 -2 22 -31 -44
-107 -245z"/>
</g>
</svg>
